<svg xmlns="http://www.w3.org/2000/svg" width="118" height="28" fill="none" viewBox="0 0 118 28">
    <path fill="#EC0044" fill-rule="evenodd" d="M0 22.939l3.406-4.107c2.404 2.003 4.908 3.205 7.913 3.205 2.404 0 3.807-.901 3.807-2.504v-.1c0-1.503-.902-2.204-5.31-3.306-5.208-1.402-8.614-2.804-8.614-8.113v-.1C1.202 3.104 5.008 0 10.418 0c3.806 0 7.112 1.202 9.816 3.306L17.23 7.713C14.925 6.11 12.621 5.11 10.418 5.11c-2.204 0-3.406 1.001-3.406 2.304v.1c0 1.703 1.102 2.304 5.71 3.506 5.309 1.402 8.414 3.305 8.414 7.913v.1c0 5.21-4.007 8.214-9.717 8.214-4.207-.1-8.214-1.402-11.419-4.307zM29.85.4h19.734v5.208H35.56v16.028h14.325v5.208H29.85V.401zm41.771 4.908c4.708 0 8.014 3.806 8.014 8.414 0 4.508-3.206 8.214-7.913 8.214-4.708 0-8.014-3.806-8.014-8.314v-.1c0-4.508 3.205-8.214 7.913-8.214zm0-5.309c-8.113 0-14.023 6.11-14.023 13.723 0 7.513 5.91 13.523 14.023 13.523 8.114 0 14.024-6.11 14.024-13.623v-.1C85.645 6.11 79.735 0 71.621 0zm23.04.4h5.308l12.321 16.228V.401H118v26.444h-4.808L100.27 10.017v16.828h-5.61V.401zM43.072 17.23c1.903 0 3.506-1.503 3.506-3.507 0-2.003-1.603-3.606-3.506-3.506-1.903 0-3.506 1.503-3.506 3.506 0 1.903 1.503 3.506 3.506 3.506z" clip-rule="evenodd"/>
</svg>
