<svg xmlns="http://www.w3.org/2000/svg" width="120" height="28" fill="none" viewBox="0 0 120 28">
    <path fill="#635958" fill-rule="evenodd" d="M22.852 3.2c1.6 1.306 2.647 2.718 3.356 4.006l-6.446 2.834-.143-.21-.157-.232c-1.295-1.714-3.237-2.666-5.408-2.666-1.41 0-2.4.38-2.895.61-2.628 1.104-4.227 3.655-4.227 6.474.038 1.295.343 2.171.533 2.628.533 1.257 2.437 4.38 6.589 4.38 1.104 0 1.866-.228 2.323-.38.364-.133 1.53-.668 2.505-1.604l6.598 2.902c-2.604 3.805-6.278 5.22-7.998 5.633-.571.152-1.79.38-3.352.38-6.817 0-10.436-4.188-11.807-6.17C1.447 20.53 0 18.054 0 14.208 0 6.894 4.799 3.123 6.97 1.828 8.074 1.181 10.55 0 13.978 0c1.752 0 5.332.305 8.874 3.2zm13.93 14.358L28.706.571h7.541l3.2 7.694c.304.762.609 1.562.875 2.323.458-1.18.953-2.361 1.448-3.504L44.513.571h7.122l-7.96 16.873v10.017h-6.894v-9.903zm20.794 9.903V.57h6.932v20.605h8.075v6.285H57.576zm28.946 0h-6.856V.57h6.856v26.89zM102.67.57h-7.922l8.151 12.76-9.255 14.13h7.617l5.294-8.341 5.257 8.34H120L102.67.572zm16.318 0l-5.522 8.327-5.522-8.326h11.044z" clip-rule="evenodd"/>
</svg>
