<svg xmlns="http://www.w3.org/2000/svg" width="71" height="71" fill="none" viewBox="0 0 71 71">
    <path fill="#EE3537" d="M0 0H71V71H0z"/>
    <path fill="#fff" fill-rule="evenodd" d="M53 34.996c0-2.523-.99-4.896-2.788-6.68L35.557 13.764A9.483 9.483 0 0028.829 11a9.484 9.484 0 00-6.728 2.764l-.311.309a9.35 9.35 0 00-2.784 6.68c0 2.527.989 4.9 2.784 6.68l7.62 7.568-7.62 7.568a9.351 9.351 0 00-2.788 6.68c0 2.524.99 4.896 2.788 6.68l.31.31a9.484 9.484 0 006.729 2.763 9.484 9.484 0 006.728-2.763l14.655-14.553a9.351 9.351 0 002.787-6.68v-.005-.005zm-14.328-4.768a6.345 6.345 0 014.5-1.847c1.703 0 3.3.656 4.5 1.847l.312.31A6.256 6.256 0 0149.848 35a6.257 6.257 0 01-1.864 4.464l-.311.31a6.345 6.345 0 01-4.5 1.85c-1.7 0-3.298-.657-4.5-1.85L33.866 35l4.806-4.773zm-2.227-2.212l-4.807 4.773-7.62-7.567a6.296 6.296 0 010-8.937l.31-.31a6.344 6.344 0 014.5-1.847c1.703 0 3.301.656 4.501 1.848l9.355 9.289a9.47 9.47 0 00-6.24 2.751zm0 13.97a9.474 9.474 0 006.235 2.755l-9.351 9.286c-2.482 2.463-6.52 2.463-9 0l-.312-.31a6.258 6.258 0 01-1.864-4.468c0-1.688.662-3.275 1.864-4.468l7.621-7.567 4.807 4.772z" clip-rule="evenodd"/>
</svg>
